<?xml version="1.0" encoding="utf-8"?>
<!-- Generator: Adobe Illustrator 19.0.0, SVG Export Plug-In . SVG Version: 6.00 Build 0)  -->
<svg version="1.0" id="Layer_1" xmlns="http://www.w3.org/2000/svg" xmlns:xlink="http://www.w3.org/1999/xlink" x="0px" y="0px"
	 viewBox="0 0 58.9 66.3" enable-background="new 0 0 58.9 66.3" xml:space="preserve">
<g id="XMLID_72_">
	<path id="XMLID_81_" fill="#00599C" d="M58.2,49.7c0.5-0.8,0.7-1.7,0.7-2.5V19.1c0-0.8-0.3-1.7-0.7-2.5L29.5,33.1L58.2,49.7z"/>
	<path id="XMLID_80_" fill="#004482" d="M32,65.7l24.4-14.1c0.7-0.4,1.3-1.1,1.8-1.9L29.5,33.1L0.7,49.7c0.5,0.8,1.1,1.5,1.8,1.9
		l24.4,14.1C28.3,66.5,30.6,66.5,32,65.7z"/>
	<path id="XMLID_79_" fill="#659AD2" d="M58.2,16.6c-0.5-0.8-1.1-1.5-1.8-1.9L32,0.6c-1.4-0.8-3.7-0.8-5.1,0L2.6,14.7
		C1.1,15.5,0,17.5,0,19.1v28.1c0,0.8,0.3,1.7,0.7,2.5l28.7-16.6L58.2,16.6z"/>
	<g id="XMLID_77_">
		<path id="XMLID_78_" fill="#FFFFFF" d="M29.5,52.8C18.6,52.8,9.8,44,9.8,33.1s8.8-19.6,19.6-19.6c7,0,13.5,3.8,17,9.8L38,28.2
			c-1.8-3-5-4.9-8.5-4.9c-5.4,0-9.8,4.4-9.8,9.8c0,5.4,4.4,9.8,9.8,9.8c3.5,0,6.8-1.9,8.5-4.9l8.5,4.9C43,49,36.4,52.8,29.5,52.8z"
			/>
	</g>
	<g id="XMLID_75_">
		<polygon id="XMLID_76_" fill="#FFFFFF" points="49.1,32.1 46.9,32.1 46.9,29.9 44.7,29.9 44.7,32.1 42.5,32.1 42.5,34.2 
			44.7,34.2 44.7,36.4 46.9,36.4 46.9,34.2 49.1,34.2 		"/>
	</g>
	<g id="XMLID_73_">
		<polygon id="XMLID_74_" fill="#FFFFFF" points="57.3,32.1 55.1,32.1 55.1,29.9 52.9,29.9 52.9,32.1 50.7,32.1 50.7,34.2 
			52.9,34.2 52.9,36.4 55.1,36.4 55.1,34.2 57.3,34.2 		"/>
	</g>
</g>
</svg>
