<?xml version="1.0" encoding="utf-8"?>
<!-- Generator: Adobe Illustrator 19.0.0, SVG Export Plug-In . SVG Version: 6.00 Build 0)  -->
<svg version="1.0" id="Layer_1" xmlns="http://www.w3.org/2000/svg" xmlns:xlink="http://www.w3.org/1999/xlink" x="0px" y="0px"
	 viewBox="0 0 60 84.7" enable-background="new 0 0 60 84.7" xml:space="preserve">
<g id="XMLID_29_">
	<path id="XMLID_40_" fill="#264DE4" d="M30,84.7L5.5,77.9L0,16.6h60l-5.5,61.2L30,84.7L30,84.7z"/>
	<path id="XMLID_39_" fill="#2965F1" d="M49.8,74l4.7-52.3H30v57.8L49.8,74L49.8,74z"/>
	<path id="XMLID_35_" fill="#EBEBEB" d="M12.5,44.4l0.7,7.5H30v-7.5H12.5z M11.2,29.2l0.7,7.5H30v-7.5L11.2,29.2z M30,63.9L30,63.9
		l-8.4-2.2l-0.5-6h-7.5l1.1,11.8L30,71.7l0,0V63.9z"/>
	<path id="XMLID_31_" d="M14.1,0h9.1v3.8h-5.3v3.8h5.3v3.8h-9.1V0z M25,0h9.1v3.3h-5.3V4h5.3v7.6H25V8.1h5.3V7.4H25L25,0L25,0z
		 M35.9,0H45v3.3h-5.3V4H45v7.6h-9.1V8.1h5.3V7.4h-5.3L35.9,0L35.9,0z"/>
	<path id="XMLID_30_" fill="#FFFFFF" d="M47.4,44.4l1.4-15.2H30v7.5h10.6l-0.7,7.7H30v7.5h9.2l-0.9,9.7L30,63.9v7.8l15.4-4.3
		l0.1-1.3l1.8-19.8L47.4,44.4L47.4,44.4z"/>
</g>
<g id="XMLID_14_">
</g>
<g id="XMLID_15_">
</g>
<g id="XMLID_16_">
</g>
<g id="XMLID_17_">
</g>
<g id="XMLID_18_">
</g>
<g id="XMLID_19_">
</g>
<g id="XMLID_20_">
</g>
<g id="XMLID_21_">
</g>
<g id="XMLID_22_">
</g>
<g id="XMLID_23_">
</g>
<g id="XMLID_24_">
</g>
<g id="XMLID_25_">
</g>
<g id="XMLID_26_">
</g>
<g id="XMLID_27_">
</g>
<g id="XMLID_28_">
</g>
</svg>
