<?xml version="1.0" encoding="utf-8"?>
<!-- Generator: Adobe Illustrator 19.0.0, SVG Export Plug-In . SVG Version: 6.00 Build 0)  -->
<svg version="1.0" id="Layer_1" xmlns="http://www.w3.org/2000/svg" xmlns:xlink="http://www.w3.org/1999/xlink" x="0px" y="0px"
	 viewBox="-449 238.3 60 84.7" enable-background="new -449 238.3 60 84.7" xml:space="preserve">
<g id="XMLID_29_">
	<path id="XMLID_40_" fill="#264DE4" d="M-419,323l-24.5-6.8l-5.5-61.3h60l-5.5,61.2L-419,323L-419,323z"/>
	<path id="XMLID_39_" fill="#2965F1" d="M-399.2,312.3l4.7-52.3H-419v57.8L-399.2,312.3L-399.2,312.3z"/>
	<path id="XMLID_35_" fill="#EBEBEB" d="M-436.5,282.7l0.7,7.5h16.8v-7.5H-436.5z M-437.8,267.5l0.7,7.5h18.1v-7.5H-437.8z
		 M-419,302.2L-419,302.2l-8.4-2.2l-0.5-6h-7.5l1.1,11.8l15.3,4.2l0,0V302.2z"/>
	<path id="XMLID_31_" fill="#FFFFFF" d="M-434.9,238.3h9.1v3.8h-5.3v3.8h5.3v3.8h-9.1V238.3z M-424,238.3h9.1v3.3h-5.3v0.7h5.3v7.6
		h-9.1v-3.5h5.3v-0.7h-5.3V238.3L-424,238.3z M-413.1,238.3h9.1v3.3h-5.3v0.7h5.3v7.6h-9.1v-3.5h5.3v-0.7h-5.3V238.3L-413.1,238.3z"
		/>
	<path id="XMLID_30_" fill="#FFFFFF" d="M-401.6,282.7l1.4-15.2H-419v7.5h10.6l-0.7,7.7h-9.9v7.5h9.2l-0.9,9.7l-8.3,2.3v7.8
		l15.4-4.3l0.1-1.3l1.8-19.8L-401.6,282.7L-401.6,282.7z"/>
</g>
<g id="XMLID_14_">
</g>
<g id="XMLID_15_">
</g>
<g id="XMLID_16_">
</g>
<g id="XMLID_17_">
</g>
<g id="XMLID_18_">
</g>
<g id="XMLID_19_">
</g>
<g id="XMLID_20_">
</g>
<g id="XMLID_21_">
</g>
<g id="XMLID_22_">
</g>
<g id="XMLID_23_">
</g>
<g id="XMLID_24_">
</g>
<g id="XMLID_25_">
</g>
<g id="XMLID_26_">
</g>
<g id="XMLID_27_">
</g>
<g id="XMLID_28_">
</g>
</svg>
