<?xml version="1.0" encoding="utf-8"?>
<!-- Generator: Adobe Illustrator 19.0.0, SVG Export Plug-In . SVG Version: 6.00 Build 0)  -->
<svg version="1.0" id="Layer_1" xmlns="http://www.w3.org/2000/svg" xmlns:xlink="http://www.w3.org/1999/xlink" x="0px" y="0px"
	 viewBox="0 0 60 84.8" enable-background="new 0 0 60 84.8" xml:space="preserve">
<g id="XMLID_15_">
	<path id="XMLID_28_" fill="#E44D26" d="M60,16.7l-5.5,61.3L30,84.8L5.5,77.9L0,16.7H60L60,16.7z"/>
	<path id="XMLID_27_" fill="#F16529" d="M30,79.5L49.9,74l4.7-52.4H30V79.5z"/>
	<path id="XMLID_24_" fill="#EBEBEB" d="M19.4,36.7H30v-7.5H11.2l0.2,2l1.8,20.7H30v-7.5h-9.9L19.4,36.7z M21.1,55.7h-7.5l1.1,11.8
		L30,71.7l0,0v-7.8l0,0l-8.4-2.3L21.1,55.7L21.1,55.7z"/>
	<path id="XMLID_19_" d="M5.6,0h3.8v3.8h3.5V0h3.8v11.4h-3.8V7.6H9.4v3.8H5.6L5.6,0L5.6,0z M21.7,3.8h-3.4V0h10.5v3.8h-3.4v7.6h-3.8
		L21.7,3.8L21.7,3.8L21.7,3.8z M30.6,0h4L37,4l2.4-4h4v11.4h-3.8V5.8L37,9.8H37l-2.6-4.1v5.7h-3.7V0z M45.4,0h3.8v7.7h5.4v3.8h-9.2
		L45.4,0L45.4,0z"/>
	<path id="XMLID_16_" fill="#FFFFFF" d="M30,51.9h9.3l-0.9,9.7L30,63.9v7.8l15.4-4.3l0.1-1.3l1.8-19.8l0.2-2H30V51.9L30,51.9z
		 M30,36.7L30,36.7l18.2,0l0.2-1.7l0.3-3.8l0.2-2H30V36.7L30,36.7z"/>
</g>
<g id="XMLID_14_">
</g>
<g id="XMLID_29_">
</g>
<g id="XMLID_30_">
</g>
<g id="XMLID_31_">
</g>
<g id="XMLID_32_">
</g>
<g id="XMLID_33_">
</g>
<g id="XMLID_34_">
</g>
<g id="XMLID_35_">
</g>
<g id="XMLID_36_">
</g>
<g id="XMLID_37_">
</g>
<g id="XMLID_38_">
</g>
<g id="XMLID_39_">
</g>
<g id="XMLID_40_">
</g>
<g id="XMLID_41_">
</g>
<g id="XMLID_42_">
</g>
</svg>
