<?xml version="1.0" encoding="utf-8"?>
<!-- Generator: Adobe Illustrator 19.0.0, SVG Export Plug-In . SVG Version: 6.00 Build 0)  -->
<svg version="1.0" id="Layer_1" xmlns="http://www.w3.org/2000/svg" xmlns:xlink="http://www.w3.org/1999/xlink" x="0px" y="0px"
	 viewBox="-449 238.2 60 84.8" enable-background="new -449 238.2 60 84.8" xml:space="preserve">
<g id="XMLID_15_">
	<path id="XMLID_28_" fill="#E44D26" d="M-389,254.9l-5.5,61.3L-419,323l-24.5-6.9l-5.5-61.2H-389L-389,254.9z"/>
	<path id="XMLID_27_" fill="#F16529" d="M-419,317.7l19.9-5.5l4.7-52.4H-419V317.7z"/>
	<path id="XMLID_24_" fill="#EBEBEB" d="M-429.6,274.9h10.6v-7.5h-18.8l0.2,2l1.8,20.7h16.8v-7.5h-9.9L-429.6,274.9z M-427.9,293.9
		h-7.5l1.1,11.8l15.3,4.2l0,0v-7.8l0,0l-8.4-2.3L-427.9,293.9L-427.9,293.9z"/>
	<path id="XMLID_19_" fill="#FFFFFF" d="M-443.4,238.2h3.8v3.8h3.5v-3.8h3.8v11.4h-3.8v-3.8h-3.5v3.8h-3.8V238.2L-443.4,238.2z
		 M-427.3,242h-3.4v-3.8h10.5v3.8h-3.4v7.6h-3.8L-427.3,242L-427.3,242L-427.3,242z M-418.4,238.2h4l2.4,4l2.4-4h4v11.4h-3.8V244
		l-2.6,4l0,0l-2.6-4.1v5.7h-3.7v-11.4H-418.4z M-403.6,238.2h3.8v7.7h5.4v3.8h-9.2V238.2L-403.6,238.2z"/>
	<path id="XMLID_16_" fill="#FFFFFF" d="M-419,290.1h9.3l-0.9,9.7l-8.4,2.3v7.8l15.4-4.3l0.1-1.3l1.8-19.8l0.2-2H-419V290.1
		L-419,290.1z M-419,274.9L-419,274.9h18.2l0.2-1.7l0.3-3.8l0.2-2H-419V274.9L-419,274.9z"/>
</g>
<g id="XMLID_14_">
</g>
<g id="XMLID_29_">
</g>
<g id="XMLID_30_">
</g>
<g id="XMLID_31_">
</g>
<g id="XMLID_32_">
</g>
<g id="XMLID_33_">
</g>
<g id="XMLID_34_">
</g>
<g id="XMLID_35_">
</g>
<g id="XMLID_36_">
</g>
<g id="XMLID_37_">
</g>
<g id="XMLID_38_">
</g>
<g id="XMLID_39_">
</g>
<g id="XMLID_40_">
</g>
<g id="XMLID_41_">
</g>
<g id="XMLID_42_">
</g>
</svg>
