<?xml version="1.0" encoding="utf-8"?>
<!-- Generator: Adobe Illustrator 19.0.0, SVG Export Plug-In . SVG Version: 6.00 Build 0)  -->
<svg version="1.0" id="Layer_1" xmlns="http://www.w3.org/2000/svg" xmlns:xlink="http://www.w3.org/1999/xlink" x="0px" y="0px"
	 viewBox="0 0 68.8 68.8" enable-background="new 0 0 68.8 68.8" xml:space="preserve">
<g id="XMLID_9_">
	<path id="XMLID_12_" fill="#F7DF1E" d="M9.5,0h49.9c5.2,0,9.5,4.2,9.5,9.5v49.9c0,5.2-4.2,9.5-9.5,9.5H9.5c-5.2,0-9.5-4.2-9.5-9.5
		V9.5C0,4.2,4.2,0,9.5,0z"/>
	<path id="XMLID_14_" d="M18.1,57.5l5.3-3.2c1,1.8,1.9,3.3,4.2,3.3c2.1,0,3.5-0.8,3.5-4.1v-22h6.5v22.1c0,6.7-3.9,9.7-9.7,9.7
		C22.6,63.4,19.6,60.8,18.1,57.5 M41,56.8l5.3-3c1.4,2.3,3.2,3.9,6.4,3.9c2.7,0,4.4-1.3,4.4-3.2c0-2.2-1.8-3-4.7-4.3l-1.6-0.7
		c-4.7-2-7.8-4.5-7.8-9.7c0-4.9,3.7-8.5,9.5-8.5c4.1,0,7.1,1.4,9.2,5.2l-5,3.2c-1.1-2-2.3-2.8-4.2-2.8c-1.9,0-3.1,1.2-3.1,2.8
		c0,1.9,1.2,2.7,4,3.9l1.6,0.7c5.5,2.4,8.6,4.8,8.6,10.2c0,5.8-4.6,9-10.7,9C46.7,63.4,42.9,60.6,41,56.8"/>
</g>
<g id="XMLID_19_">
</g>
<g id="XMLID_20_">
</g>
<g id="XMLID_21_">
</g>
<g id="XMLID_22_">
</g>
<g id="XMLID_23_">
</g>
<g id="XMLID_24_">
</g>
<g id="XMLID_25_">
</g>
<g id="XMLID_26_">
</g>
<g id="XMLID_27_">
</g>
<g id="XMLID_28_">
</g>
<g id="XMLID_29_">
</g>
<g id="XMLID_30_">
</g>
<g id="XMLID_31_">
</g>
<g id="XMLID_32_">
</g>
<g id="XMLID_33_">
</g>
</svg>
