<?xml version="1.0" encoding="utf-8"?>
<!-- Generator: Adobe Illustrator 19.0.0, SVG Export Plug-In . SVG Version: 6.00 Build 0)  -->
<svg version="1.0" id="Layer_1" xmlns="http://www.w3.org/2000/svg" xmlns:xlink="http://www.w3.org/1999/xlink" x="0px" y="0px"
	 viewBox="0 0 62.3 69.3" enable-background="new 0 0 62.3 69.3" xml:space="preserve">
<g id="XMLID_83_">
	<path id="XMLID_90_" fill="#5D4037" d="M62.3,23c0,35.5-31.2,46.2-31.2,46.2S0,58.5,0,23c0-4.3,0.3-8,0.7-10.9
		c0.5-4.3,3.5-7.8,7.6-8.8C13.7,1.7,22.2,0,31.2,0s17.5,1.7,23,3.3c4.2,1,7.1,4.7,7.6,8.8C62,15.1,62.3,18.9,62.3,23z"/>
	<path id="XMLID_87_" fill="#4CAF50" d="M31.2,5.2c8.5,0,16.4,1.7,21.6,3.1c2.1,0.5,3.5,2.3,3.8,4.5c0.3,3.3,0.5,6.8,0.5,10.2
		c0,27-19.9,37.9-26,40.5c-6.1-2.8-26-13.7-26-40.5c0-3.5,0.2-6.9,0.5-10.2c0.2-2.3,1.7-4,3.8-4.5C14.7,6.9,22.7,5.2,31.2,5.2
		 M31.2,0c-9,0-17.5,1.7-23,3.3c-4,1-7.1,4.7-7.4,8.8C0.3,15.1,0,18.9,0,23c0,35.5,31.2,46.2,31.2,46.2S62.3,58.5,62.3,23
		c0-4.3-0.3-8-0.7-10.9c-0.5-4.3-3.5-7.8-7.6-8.8C48.7,1.7,40.2,0,31.2,0L31.2,0z"/>
	<path id="XMLID_86_" fill="#DCEDC8" d="M29.4,41.6h3.5v13.9h-3.5V41.6z"/>
	<path id="XMLID_85_" fill="#4CAF50" d="M31.2,10.4c0,0-10.4,8.7-10.4,22.5c0,9,5.7,14.7,8.7,17.3l1.7-5.2l1.7,5.2
		c2.9-2.6,8.7-8.3,8.7-17.3C41.6,19,31.2,10.4,31.2,10.4z"/>
	<path id="XMLID_84_" fill="#81C784" d="M31.2,10.4c0,0-10.4,8.7-10.4,22.5c0,9,5.7,14.7,8.7,17.3l1.7-5.2V10.4z"/>
</g>
<g id="XMLID_14_">
</g>
<g id="XMLID_15_">
</g>
<g id="XMLID_16_">
</g>
<g id="XMLID_17_">
</g>
<g id="XMLID_18_">
</g>
<g id="XMLID_19_">
</g>
<g id="XMLID_20_">
</g>
<g id="XMLID_21_">
</g>
<g id="XMLID_22_">
</g>
<g id="XMLID_23_">
</g>
<g id="XMLID_24_">
</g>
<g id="XMLID_25_">
</g>
<g id="XMLID_26_">
</g>
<g id="XMLID_27_">
</g>
<g id="XMLID_28_">
</g>
</svg>
