<?xml version="1.0" encoding="utf-8"?>
<!-- Generator: Adobe Illustrator 19.0.0, SVG Export Plug-In . SVG Version: 6.00 Build 0)  -->
<svg version="1.0" id="Layer_1" xmlns="http://www.w3.org/2000/svg" xmlns:xlink="http://www.w3.org/1999/xlink" x="0px" y="0px"
	 viewBox="0 0 960 560" enable-background="new 0 0 960 560" xml:space="preserve">
<g id="XMLID_91_">
	<path id="XMLID_106_" fill="none" d="M405.8,227.7h149.8v103.9H405.8V227.7z"/>
	<path id="XMLID_103_" fill="#5D87A1" d="M451.7,311.6h-4.1c-0.1-6.8-0.5-13.3-1.2-19.3h0l-6.2,19.3h-3.1l-6.1-19.3h0
		c-0.5,5.8-0.7,12.2-0.9,19.3h-3.7c0.2-8.6,0.8-16.7,1.8-24.2h5l5.9,17.8h0l5.9-17.8h4.8C450.9,296.2,451.5,304.3,451.7,311.6
		 M469.3,293.7c-1.7,9-3.8,15.5-6.5,19.5c-2.1,3.1-4.4,4.7-6.9,4.7c-0.7,0-1.5-0.2-2.5-0.6v-2.2c0.5,0.1,1,0.1,1.7,0.1
		c1.2,0,2.1-0.3,2.8-1c0.9-0.8,1.3-1.7,1.3-2.7c0-0.7-0.3-2-1-4.1l-4.5-13.8h4l3.2,10.3c0.7,2.3,1,4,0.9,4.9c1.7-4.7,3-9.8,3.7-15.3
		L469.3,293.7L469.3,293.7z"/>
	<path id="XMLID_98_" fill="#F8981D" d="M523.3,311.6h-11.5v-24.2h3.9v21.3h7.6V311.6z M508.8,312.2l-4.5-2.2
		c0.4-0.3,0.8-0.7,1.1-1.1c1.9-2.2,2.8-5.5,2.8-9.9c0-8-3.1-12-9.4-12c-3.1,0-5.5,1-7.2,3.1c-1.9,2.2-2.8,5.5-2.8,9.8
		c0,4.3,0.8,7.4,2.5,9.4c1.5,1.8,3.8,2.7,6.9,2.7c1.2,0,2.2-0.1,3.2-0.4l5.8,3.4L508.8,312.2z M494.3,306.8c-1-1.6-1.5-4.1-1.5-7.6
		c0-6.1,1.9-9.2,5.6-9.2c1.9,0,3.4,0.7,4.3,2.2c1,1.6,1.5,4.1,1.5,7.5c0,6.2-1.9,9.2-5.6,9.2C496.6,308.9,495.2,308.2,494.3,306.8
		 M487.1,304.9c0,2.1-0.8,3.7-2.3,5.1c-1.5,1.3-3.5,2-6.1,2c-2.4,0-4.7-0.8-6.9-2.3l1-2.1c1.9,1,3.6,1.4,5.2,1.4
		c1.5,0,2.6-0.3,3.4-1c0.8-0.6,1.3-1.5,1.3-2.7c0-1.4-1-2.7-2.8-3.7c-1.7-0.9-5.1-2.9-5.1-2.9c-1.8-1.3-2.8-2.8-2.8-5.2
		c0-2,0.7-3.6,2.1-4.8c1.4-1.2,3.2-1.8,5.3-1.8c2.2,0,4.3,0.6,6.1,1.8l-0.9,2.1c-1.6-0.7-3.1-1-4.7-1c-1.2,0-2.2,0.3-2.9,0.9
		c-0.7,0.6-1.1,1.4-1.1,2.3c0,1.4,1,2.7,2.9,3.7c1.7,0.9,5.2,2.9,5.2,2.9C486.1,301.1,487.1,302.5,487.1,304.9"/>
	<path id="XMLID_95_" fill="#5D87A1" d="M528.2,279.2c-2.3-0.1-4.2,0.2-5.7,0.8c-0.4,0.2-1.1,0.2-1.2,0.7c0.2,0.2,0.3,0.6,0.5,0.9
		c0.4,0.6,1,1.4,1.5,1.8c0.6,0.5,1.2,0.9,1.9,1.3c1.1,0.7,2.4,1.1,3.5,1.8c0.6,0.4,1.3,0.9,1.9,1.4c0.3,0.2,0.5,0.6,0.9,0.8v-0.1
		c-0.2-0.3-0.3-0.6-0.5-0.9l-0.9-0.8c-0.8-1.1-1.9-2.1-3-3c-0.9-0.6-3-1.5-3.4-2.6l-0.1-0.1c0.6-0.1,1.4-0.3,2-0.5
		c1-0.3,1.9-0.2,2.9-0.5c0.5-0.1,0.9-0.3,1.4-0.4v-0.3c-0.5-0.5-0.9-1.2-1.5-1.7c-1.5-1.3-3.1-2.5-4.8-3.6c-0.9-0.6-2.1-1-3-1.5
		c-0.3-0.2-0.9-0.3-1.1-0.6c-0.5-0.6-0.8-1.5-1.2-2.3c-0.8-1.6-1.7-3.4-2.4-5.1c-0.5-1.1-0.8-2.3-1.5-3.3c-3-5-6.3-8-11.3-11
		c-1.1-0.6-2.4-0.9-3.7-1.2l-2.2-0.1c-0.5-0.2-0.9-0.8-1.3-1c-1.7-1.1-6-3.3-7.2-0.3c-0.8,1.9,1.2,3.8,1.8,4.7
		c0.5,0.7,1.1,1.4,1.5,2.2c0.2,0.5,0.3,1,0.5,1.6c0.5,1.3,0.9,2.7,1.5,3.9c0.3,0.6,0.7,1.3,1.1,1.8c0.2,0.3,0.6,0.5,0.7,1
		c-0.4,0.6-0.4,1.5-0.7,2.2c-1.1,3.3-0.6,7.4,0.9,9.8c0.5,0.7,1.6,2.3,3.1,1.7c1.3-0.5,1-2.2,1.4-3.7c0.1-0.4,0-0.6,0.2-0.8v0.1
		c0.4,0.8,0.8,1.6,1.2,2.4c0.9,1.4,2.5,2.9,3.8,3.9c0.7,0.5,1.3,1.4,2.1,1.8v-0.1h-0.1c-0.2-0.3-0.4-0.4-0.7-0.6
		c-0.5-0.5-1.1-1.2-1.5-1.8c-1.2-1.6-2.3-3.5-3.3-5.3c-0.5-0.9-0.9-1.9-1.3-2.8c-0.2-0.4-0.2-0.9-0.5-1.1c-0.4,0.6-1.1,1.2-1.4,2
		c-0.6,1.3-0.6,2.8-0.8,4.4l-0.1,0.1c-0.9-0.2-1.3-1.2-1.6-2c-0.9-2.1-1-5.4-0.3-7.8c0.2-0.6,1.1-2.5,0.7-3.1
		c-0.2-0.6-0.8-0.9-1.1-1.3c-0.4-0.6-0.8-1.3-1.1-1.9c-0.7-1.6-1.1-3.5-1.8-5.1c-0.4-0.8-1-1.6-1.5-2.3c-0.6-0.8-1.2-1.3-1.6-2.3
		c-0.1-0.3-0.4-0.8-0.1-1.2c0.1-0.2,0.2-0.3,0.4-0.4c0.4-0.3,1.5,0.1,1.8,0.3c1.1,0.4,2,0.8,2.9,1.5c0.4,0.3,0.8,0.9,1.4,1h0.6
		c0.9,0.2,2,0.1,2.9,0.3c1.6,0.5,3,1.2,4.2,2c3.8,2.4,7,5.9,9.1,10c0.4,0.7,0.5,1.3,0.8,2c0.6,1.4,1.4,2.9,2,4.3
		c0.6,1.4,1.2,2.8,2.1,3.9c0.4,0.6,2.2,0.9,3,1.3c0.6,0.3,1.5,0.5,2,0.8c1,0.6,2,1.3,2.9,2C526.6,277.9,528.1,278.7,528.2,279.2
		 M498.3,253.8c-0.4,0-0.8,0-1.2,0.1v0.1h0.1c0.2,0.5,0.6,0.8,0.9,1.2c0.2,0.5,0.4,0.9,0.7,1.4l0.1-0.1c0.4-0.3,0.6-0.8,0.6-1.5
		c-0.2-0.2-0.2-0.4-0.4-0.6C498.9,254.2,498.5,254,498.3,253.8"/>
	<path id="XMLID_92_" fill="#F8981D" d="M530.9,311.6h0.6v-3h-0.9l-0.7,2l-0.8-2h-0.9v3h0.6v-2.3h0l0.8,2.3h0.4l0.8-2.3L530.9,311.6
		L530.9,311.6z M526.1,311.6h0.6v-2.5h0.8v-0.5h-2.4v0.5h0.9L526.1,311.6L526.1,311.6z"/>
</g>
<g id="XMLID_1_">
</g>
<g id="XMLID_2_">
</g>
<g id="XMLID_3_">
</g>
<g id="XMLID_4_">
</g>
<g id="XMLID_5_">
</g>
<g id="XMLID_6_">
</g>
<g id="XMLID_7_">
</g>
<g id="XMLID_8_">
</g>
<g id="XMLID_9_">
</g>
<g id="XMLID_10_">
</g>
<g id="XMLID_11_">
</g>
<g id="XMLID_12_">
</g>
<g id="XMLID_13_">
</g>
<g id="XMLID_14_">
</g>
<g id="XMLID_15_">
</g>
</svg>
