<?xml version="1.0" encoding="utf-8"?>
<!-- Generator: Adobe Illustrator 19.0.0, SVG Export Plug-In . SVG Version: 6.00 Build 0)  -->
<svg version="1.0" id="Layer_1" xmlns="http://www.w3.org/2000/svg" xmlns:xlink="http://www.w3.org/1999/xlink" x="0px" y="0px"
	 viewBox="-415 241.3 128.4 78.7" enable-background="new -415 241.3 128.4 78.7" xml:space="preserve">
<g id="XMLID_15_">
</g>
<g id="XMLID_16_">
</g>
<g id="XMLID_17_">
</g>
<g id="XMLID_18_">
</g>
<g id="XMLID_19_">
</g>
<g id="XMLID_20_">
</g>
<g id="XMLID_21_">
</g>
<g id="XMLID_22_">
</g>
<g id="XMLID_23_">
</g>
<g id="XMLID_24_">
</g>
<g id="XMLID_25_">
</g>
<g id="XMLID_26_">
</g>
<g id="XMLID_27_">
</g>
<g id="XMLID_28_">
</g>
<g id="XMLID_10_">
	<rect id="XMLID_47_" x="-359.6" y="311.4" fill="#FEFAE0" width="0" height="1.5"/>
	<path id="XMLID_69_" fill="#689F63" d="M-351.3,320.1c-0.4,0-0.8-0.1-1.2-0.3l-3.9-2.3c-0.6-0.3-0.3-0.4-0.1-0.5
		c0.8-0.3,0.9-0.3,1.8-0.8c0.1,0,0.2,0,0.3,0l3,1.8c0.1,0.1,0.3,0.1,0.4,0l11.6-6.7c0.1-0.1,0.2-0.2,0.2-0.3v-13.4
		c0-0.1-0.1-0.3-0.2-0.3l-11.6-6.7c-0.1-0.1-0.2-0.1-0.4,0l-11.6,6.7c-0.1,0.1-0.2,0.2-0.2,0.3v13.4c0,0.1,0.1,0.2,0.2,0.3l3.2,1.8
		c1.7,0.9,2.8-0.2,2.8-1.2v-13.2c0-0.2,0.1-0.3,0.3-0.3h1.5c0.2,0,0.3,0.1,0.3,0.3v13.2c0,2.3-1.3,3.6-3.4,3.6c-0.7,0-1.2,0-2.7-0.7
		l-3-1.8c-0.8-0.4-1.2-1.2-1.2-2.1v-13.4c0-0.9,0.5-1.7,1.2-2.1l11.6-6.7c0.7-0.4,1.7-0.4,2.4,0l11.6,6.7c0.7,0.4,1.2,1.2,1.2,2.1
		v13.4c0,0.9-0.5,1.7-1.2,2.1l-11.6,6.7C-350.5,320-350.9,320.1-351.3,320.1"/>
	<path id="XMLID_63_" fill="#689F63" d="M-347.7,310.8c-5.1,0-6.1-2.3-6.1-4.3c0-0.2,0.1-0.3,0.3-0.3h1.5c0.2,0,0.3,0.1,0.3,0.3
		c0.2,1.5,0.9,2.3,4,2.3c2.4,0,3.5-0.6,3.5-1.8c0-0.7-0.3-1.3-4.1-1.7c-3.2-0.3-5.1-1-5.1-3.6c0-2.3,2-3.7,5.3-3.7
		c3.7,0,5.6,1.3,5.8,4.1c0,0.1,0,0.2-0.1,0.3c-0.1,0.1-0.2,0.1-0.2,0.1h-1.5c-0.2,0-0.3-0.1-0.3-0.3c-0.4-1.6-1.2-2.1-3.6-2.1
		c-2.7,0-3,0.9-3,1.6c0,0.8,0.4,1.1,4,1.6c3.6,0.5,5.3,1.1,5.3,3.6C-342,309.4-344.1,310.9-347.7,310.8 M-333.6,296.7h0.4
		c0.3,0,0.4-0.2,0.4-0.4c0-0.3-0.2-0.3-0.4-0.3h-0.4L-333.6,296.7z M-334.1,295.6h0.9c0.3,0,0.9,0,0.9,0.7c0,0.5-0.3,0.6-0.5,0.6
		c0.3,0,0.4,0.2,0.4,0.6c0,0.2,0.1,0.5,0.1,0.7h-0.5c0-0.1-0.1-0.8-0.1-0.8c0-0.1-0.1-0.2-0.3-0.2h-0.4v1h-0.5V295.6z M-335.1,296.8
		c0,1,0.8,1.9,1.9,1.9c1,0,1.9-0.9,1.9-1.9c0-1-0.9-1.9-1.9-1.9C-334.3,294.9-335.1,295.8-335.1,296.8 M-331,296.8
		c0,1.2-1,2.2-2.2,2.2c-1.2,0-2.2-1-2.2-2.2c0-1.3,1-2.2,2.2-2.2C-332.1,294.6-331,295.6-331,296.8"/>
	<path id="XMLID_58_" fill="#333333" d="M-387.2,267.7c0-0.5-0.3-1-0.7-1.3l-12.3-7.1c-0.2-0.1-0.4-0.2-0.7-0.2h-0.1
		c-0.2,0-0.5,0.1-0.7,0.2l-12.3,7.1c-0.5,0.3-0.7,0.8-0.7,1.3l0,19.1c0,0.3,0.1,0.5,0.4,0.6c0.2,0.1,0.5,0.1,0.7,0l7.3-4.2
		c0.5-0.3,0.7-0.8,0.7-1.3V273c0-0.5,0.3-1,0.7-1.3l3.1-1.8c0.2-0.1,0.5-0.2,0.7-0.2c0.3,0,0.5,0.1,0.7,0.2l3.1,1.8
		c0.5,0.3,0.7,0.8,0.7,1.3v8.9c0,0.5,0.3,1,0.7,1.3l7.3,4.2c0.2,0.1,0.5,0.1,0.7,0c0.2-0.1,0.4-0.4,0.4-0.6L-387.2,267.7z
		 M-329.2,277.6c0,0.1-0.1,0.3-0.2,0.3l-4.2,2.4c-0.1,0.1-0.3,0.1-0.4,0l-4.2-2.4c-0.1-0.1-0.2-0.2-0.2-0.3v-4.9
		c0-0.1,0.1-0.3,0.2-0.3l4.2-2.4c0.1-0.1,0.3-0.1,0.4,0l4.2,2.4c0.1,0.1,0.2,0.2,0.2,0.3L-329.2,277.6z M-328.1,241.5
		c-0.2-0.1-0.5-0.1-0.7,0c-0.2,0.1-0.4,0.4-0.4,0.6V261c0,0.2-0.1,0.4-0.3,0.5c-0.2,0.1-0.4,0.1-0.5,0l-3.1-1.8
		c-0.5-0.3-1-0.3-1.5,0l-12.3,7.1c-0.5,0.3-0.7,0.8-0.7,1.3v14.2c0,0.5,0.3,1,0.7,1.3l12.3,7.1c0.5,0.3,1,0.3,1.5,0l12.3-7.1
		c0.5-0.3,0.7-0.8,0.7-1.3v-35.4c0-0.5-0.3-1-0.8-1.3L-328.1,241.5z M-287.1,272.6c0.5-0.3,0.7-0.8,0.7-1.3v-3.4
		c0-0.5-0.3-1-0.7-1.3l-12.2-7.1c-0.5-0.3-1-0.3-1.5,0l-12.3,7.1c-0.5,0.3-0.7,0.8-0.7,1.3v14.2c0,0.5,0.3,1,0.7,1.3l12.2,7
		c0.5,0.3,1,0.3,1.5,0l7.4-4.1c0.2-0.1,0.4-0.4,0.4-0.6s-0.1-0.5-0.4-0.6l-12.4-7.1c-0.2-0.1-0.4-0.4-0.4-0.6v-4.5
		c0-0.3,0.1-0.5,0.4-0.6l3.9-2.2c0.2-0.1,0.5-0.1,0.7,0l3.9,2.2c0.2,0.1,0.4,0.4,0.4,0.6v3.5c0,0.3,0.1,0.5,0.4,0.6
		c0.2,0.1,0.5,0.1,0.7,0L-287.1,272.6z"/>
	<path id="XMLID_57_" fill="#689F63" d="M-300.3,271.9c0.1-0.1,0.2-0.1,0.3,0l2.4,1.4c0.1,0.1,0.1,0.1,0.1,0.2v2.7
		c0,0.1-0.1,0.2-0.1,0.2l-2.4,1.4c-0.1,0.1-0.2,0.1-0.3,0l-2.4-1.4c-0.1-0.1-0.1-0.1-0.1-0.2v-2.7c0-0.1,0.1-0.2,0.1-0.2
		L-300.3,271.9z"/>
	<g id="XMLID_54_">
		<defs>
			<path id="SVGID_10_" d="M-368.1,259.6l-12.2,7.1c-0.5,0.3-0.7,0.8-0.7,1.3V282c0,0.5,0.3,1,0.7,1.3l12.2,7.1c0.5,0.3,1,0.3,1.5,0
				l12.2-7.1c0.5-0.3,0.7-0.8,0.7-1.3v-14.1c0-0.5-0.3-1-0.7-1.3l-12.2-7.1c-0.2-0.1-0.5-0.2-0.7-0.2
				C-367.7,259.4-367.9,259.4-368.1,259.6"/>
		</defs>
		<clipPath id="SVGID_1_">
			<use xlink:href="#SVGID_10_"  overflow="visible"/>
		</clipPath>
		<g id="XMLID_55_" transform="translate(-78.306 -164.016)" clip-path="url(#SVGID_1_)">
			
				<linearGradient id="XMLID_2_" gradientUnits="userSpaceOnUse" x1="-1065.2507" y1="647.7962" x2="-1064.9025" y2="647.7962" gradientTransform="matrix(-50.7531 103.536 103.536 50.7531 -121415.2969 77835.1094)">
				<stop  offset="0.3" style="stop-color:#3E863D"/>
				<stop  offset="0.5" style="stop-color:#55934F"/>
				<stop  offset="0.8" style="stop-color:#5AAD45"/>
			</linearGradient>
			<path id="XMLID_56_" fill="url(#XMLID_2_)" d="M-263,429.5l-34.5-16.9l-17.7,36.1l34.5,16.9L-263,429.5z"/>
		</g>
	</g>
	<g id="XMLID_51_">
		<defs>
			<path id="SVGID_13_" d="M-380.8,282.9c0.1,0.2,0.3,0.3,0.4,0.4l10.5,6.1l1.7,1c0.3,0.2,0.6,0.2,0.9,0.2c0.1,0,0.2,0,0.3-0.1
				l12.9-23.6c-0.1-0.1-0.2-0.2-0.3-0.3l-8-4.6l-4.2-2.4c-0.1-0.1-0.3-0.1-0.4-0.2L-380.8,282.9z"/>
		</defs>
		<clipPath id="SVGID_2_">
			<use xlink:href="#SVGID_13_"  overflow="visible"/>
		</clipPath>
		<g id="XMLID_52_" transform="translate(-78.306 -164.016)" clip-path="url(#SVGID_2_)">
			
				<linearGradient id="XMLID_3_" gradientUnits="userSpaceOnUse" x1="-1061.3392" y1="641.2828" x2="-1061.1132" y2="641.2828" gradientTransform="matrix(142.4074 -105.2221 -105.2221 -142.4074 218314.4063 -19902.043)">
				<stop  offset="0.57" style="stop-color:#3E863D"/>
				<stop  offset="0.72" style="stop-color:#619857"/>
				<stop  offset="1" style="stop-color:#76AC64"/>
			</linearGradient>
			<path id="XMLID_53_" fill="url(#XMLID_3_)" d="M-317.4,434.5l24.3,32.9l32.2-23.8l-24.3-32.9L-317.4,434.5z"/>
		</g>
	</g>
	<g id="XMLID_48_">
		<defs>
			<path id="SVGID_16_" d="M-367.6,259.4c-0.2,0-0.4,0.1-0.6,0.2l-12.2,7l13.2,24c0.2,0,0.4-0.1,0.5-0.2l12.2-7.1
				c0.4-0.2,0.6-0.6,0.7-1l-13.4-22.9c-0.1,0-0.2,0-0.3,0C-367.5,259.4-367.5,259.4-367.6,259.4"/>
		</defs>
		<clipPath id="SVGID_3_">
			<use xlink:href="#SVGID_16_"  overflow="visible"/>
		</clipPath>
		<g id="XMLID_49_" transform="translate(-78.306 -164.016)" clip-path="url(#SVGID_3_)">
			
				<linearGradient id="XMLID_4_" gradientUnits="userSpaceOnUse" x1="-1059.0061" y1="643.0273" x2="-1058.8011" y2="643.0273" gradientTransform="matrix(129.8891 0 0 -129.8891 137251.3125 83961.2344)">
				<stop  offset="0.16" style="stop-color:#6BBF47"/>
				<stop  offset="0.38" style="stop-color:#79B461"/>
				<stop  offset="0.47" style="stop-color:#75AC64"/>
				<stop  offset="0.7" style="stop-color:#659E5A"/>
				<stop  offset="0.9" style="stop-color:#3E863D"/>
			</linearGradient>
			<path id="XMLID_50_" fill="url(#XMLID_4_)" d="M-302,423.4v31.2h26.6v-31.2H-302z"/>
		</g>
	</g>
</g>
</svg>
