<?xml version="1.0" encoding="utf-8"?>
<!-- Generator: Adobe Illustrator 19.0.0, SVG Export Plug-In . SVG Version: 6.00 Build 0)  -->
<svg version="1.0" id="Layer_1" xmlns="http://www.w3.org/2000/svg" xmlns:xlink="http://www.w3.org/1999/xlink" x="0px" y="0px"
	 viewBox="0 0 128.4 78.7" enable-background="new 0 0 128.4 78.7" xml:space="preserve">
<g id="XMLID_10_">
	<rect id="XMLID_47_" x="55.2" y="70" fill="#FEFAE0" width="0" height="1.5"/>
	<path id="XMLID_69_" fill="#689F63" d="M63.5,78.7c-0.4,0-0.8-0.1-1.2-0.3L58.4,76c-0.6-0.3-0.3-0.4-0.1-0.5
		c0.8-0.3,0.9-0.3,1.8-0.8c0.1,0,0.2,0,0.3,0l3,1.8c0.1,0.1,0.3,0.1,0.4,0l11.6-6.7c0.1-0.1,0.2-0.2,0.2-0.3V56.1
		c0-0.1-0.1-0.3-0.2-0.3l-11.6-6.7c-0.1-0.1-0.2-0.1-0.4,0l-11.6,6.7c-0.1,0.1-0.2,0.2-0.2,0.3v13.4c0,0.1,0.1,0.2,0.2,0.3l3.2,1.8
		c1.7,0.9,2.8-0.2,2.8-1.2V57.3c0-0.2,0.1-0.3,0.3-0.3h1.5c0.2,0,0.3,0.1,0.3,0.3v13.2c0,2.3-1.3,3.6-3.4,3.6c-0.7,0-1.2,0-2.7-0.7
		l-3-1.8c-0.8-0.4-1.2-1.2-1.2-2.1V56.1c0-0.9,0.5-1.7,1.2-2.1l11.6-6.7c0.7-0.4,1.7-0.4,2.4,0L76.3,54c0.7,0.4,1.2,1.2,1.2,2.1
		v13.4c0,0.9-0.5,1.7-1.2,2.1l-11.6,6.7C64.3,78.5,63.9,78.7,63.5,78.7"/>
	<path id="XMLID_63_" fill="#689F63" d="M67.1,69.4c-5.1,0-6.1-2.3-6.1-4.3c0-0.2,0.1-0.3,0.3-0.3h1.5c0.2,0,0.3,0.1,0.3,0.3
		c0.2,1.5,0.9,2.3,4,2.3c2.4,0,3.5-0.6,3.5-1.8c0-0.7-0.3-1.3-4.1-1.7c-3.2-0.3-5.1-1-5.1-3.6c0-2.3,2-3.7,5.3-3.7
		c3.7,0,5.6,1.3,5.8,4.1c0,0.1,0,0.2-0.1,0.3C72.2,61,72.1,61,72,61h-1.5c-0.2,0-0.3-0.1-0.3-0.3c-0.4-1.6-1.2-2.1-3.6-2.1
		c-2.7,0-3,0.9-3,1.6c0,0.8,0.4,1.1,4,1.6c3.6,0.5,5.3,1.1,5.3,3.6C72.8,68,70.7,69.5,67.1,69.4 M81.2,55.3h0.4
		c0.3,0,0.4-0.2,0.4-0.4c0-0.3-0.2-0.3-0.4-0.3h-0.4L81.2,55.3z M80.7,54.2h0.9c0.3,0,0.9,0,0.9,0.7c0,0.5-0.3,0.6-0.5,0.6
		c0.3,0,0.4,0.2,0.4,0.6c0,0.2,0.1,0.5,0.1,0.7H82c0-0.1-0.1-0.8-0.1-0.8c0-0.1-0.1-0.2-0.3-0.2h-0.4v1h-0.5V54.2z M79.7,55.4
		c0,1,0.8,1.9,1.9,1.9c1,0,1.9-0.9,1.9-1.9c0-1-0.9-1.9-1.9-1.9C80.5,53.5,79.7,54.4,79.7,55.4 M83.8,55.4c0,1.2-1,2.2-2.2,2.2
		c-1.2,0-2.2-1-2.2-2.2c0-1.3,1-2.2,2.2-2.2C82.7,53.2,83.8,54.2,83.8,55.4"/>
	<path id="XMLID_58_" fill="#333333" d="M27.6,26.3c0-0.5-0.3-1-0.7-1.3l-12.3-7.1c-0.2-0.1-0.4-0.2-0.7-0.2h-0.1
		c-0.2,0-0.5,0.1-0.7,0.2L0.7,25C0.3,25.3,0,25.8,0,26.3l0,19.1c0,0.3,0.1,0.5,0.4,0.6c0.2,0.1,0.5,0.1,0.7,0l7.3-4.2
		c0.5-0.3,0.7-0.8,0.7-1.3v-8.9c0-0.5,0.3-1,0.7-1.3l3.1-1.8c0.2-0.1,0.5-0.2,0.7-0.2c0.3,0,0.5,0.1,0.7,0.2l3.1,1.8
		c0.5,0.3,0.7,0.8,0.7,1.3v8.9c0,0.5,0.3,1,0.7,1.3l7.3,4.2c0.2,0.1,0.5,0.1,0.7,0c0.2-0.1,0.4-0.4,0.4-0.6L27.6,26.3z M85.6,36.2
		c0,0.1-0.1,0.3-0.2,0.3L81.2,39c-0.1,0.1-0.3,0.1-0.4,0l-4.2-2.4c-0.1-0.1-0.2-0.2-0.2-0.3v-4.9c0-0.1,0.1-0.3,0.2-0.3l4.2-2.4
		c0.1-0.1,0.3-0.1,0.4,0l4.2,2.4c0.1,0.1,0.2,0.2,0.2,0.3L85.6,36.2z M86.7,0.1C86.5,0,86.2,0,86,0.1c-0.2,0.1-0.4,0.4-0.4,0.6v18.9
		c0,0.2-0.1,0.4-0.3,0.5c-0.2,0.1-0.4,0.1-0.5,0l-3.1-1.8c-0.5-0.3-1-0.3-1.5,0L68,25.4c-0.5,0.3-0.7,0.8-0.7,1.3v14.2
		c0,0.5,0.3,1,0.7,1.3l12.3,7.1c0.5,0.3,1,0.3,1.5,0l12.3-7.1c0.5-0.3,0.7-0.8,0.7-1.3V5.5c0-0.5-0.3-1-0.8-1.3L86.7,0.1z
		 M127.7,31.2c0.5-0.3,0.7-0.8,0.7-1.3v-3.4c0-0.5-0.3-1-0.7-1.3l-12.2-7.1c-0.5-0.3-1-0.3-1.5,0l-12.3,7.1
		c-0.5,0.3-0.7,0.8-0.7,1.3v14.2c0,0.5,0.3,1,0.7,1.3l12.2,7c0.5,0.3,1,0.3,1.5,0l7.4-4.1c0.2-0.1,0.4-0.4,0.4-0.6
		c0-0.3-0.1-0.5-0.4-0.6l-12.4-7.1c-0.2-0.1-0.4-0.4-0.4-0.6v-4.5c0-0.3,0.1-0.5,0.4-0.6l3.9-2.2c0.2-0.1,0.5-0.1,0.7,0l3.9,2.2
		c0.2,0.1,0.4,0.4,0.4,0.6v3.5c0,0.3,0.1,0.5,0.4,0.6c0.2,0.1,0.5,0.1,0.7,0L127.7,31.2z"/>
	<path id="XMLID_57_" fill="#689F63" d="M114.6,30.5c0.1-0.1,0.2-0.1,0.3,0l2.4,1.4c0.1,0.1,0.1,0.1,0.1,0.2v2.7
		c0,0.1-0.1,0.2-0.1,0.2l-2.4,1.4c-0.1,0.1-0.2,0.1-0.3,0l-2.4-1.4c-0.1-0.1-0.1-0.1-0.1-0.2v-2.7c0-0.1,0.1-0.2,0.1-0.2L114.6,30.5
		z"/>
	<g id="XMLID_54_">
		<defs>
			<path id="SVGID_10_" d="M46.7,18.2l-12.2,7.1c-0.5,0.3-0.7,0.8-0.7,1.3v14.1c0,0.5,0.3,1,0.7,1.3L46.7,49c0.5,0.3,1,0.3,1.5,0
				l12.2-7.1c0.5-0.3,0.7-0.8,0.7-1.3V26.5c0-0.5-0.3-1-0.7-1.3l-12.2-7.1C47.9,18,47.7,18,47.4,18C47.1,18,46.9,18,46.7,18.2"/>
		</defs>
		<clipPath id="SVGID_1_">
			<use xlink:href="#SVGID_10_"  overflow="visible"/>
		</clipPath>
		<g id="XMLID_55_" transform="translate(-78.306 -164.016)" clip-path="url(#SVGID_1_)">
			
				<linearGradient id="XMLID_31_" gradientUnits="userSpaceOnUse" x1="-650.4459" y1="407.3875" x2="-650.0977" y2="407.3875" gradientTransform="matrix(-50.7531 103.536 103.536 50.7531 -75056.8906 46847.9688)">
				<stop  offset="0.3" style="stop-color:#3E863D"/>
				<stop  offset="0.5" style="stop-color:#55934F"/>
				<stop  offset="0.8" style="stop-color:#5AAD45"/>
			</linearGradient>
			<path id="XMLID_56_" fill="url(#XMLID_31_)" d="M151.8,188.1l-34.5-16.9l-17.7,36.1l34.5,16.9L151.8,188.1z"/>
		</g>
	</g>
	<g id="XMLID_51_">
		<defs>
			<path id="SVGID_13_" d="M34,41.5c0.1,0.2,0.3,0.3,0.4,0.4L44.9,48l1.7,1c0.3,0.2,0.6,0.2,0.9,0.2c0.1,0,0.2,0,0.3-0.1l12.9-23.6
				c-0.1-0.1-0.2-0.2-0.3-0.3l-8-4.6l-4.2-2.4c-0.1-0.1-0.3-0.1-0.4-0.2L34,41.5z"/>
		</defs>
		<clipPath id="SVGID_2_">
			<use xlink:href="#SVGID_13_"  overflow="visible"/>
		</clipPath>
		<g id="XMLID_52_" transform="translate(-78.306 -164.016)" clip-path="url(#SVGID_2_)">
			
				<linearGradient id="XMLID_32_" gradientUnits="userSpaceOnUse" x1="-646.5233" y1="400.8825" x2="-646.2972" y2="400.8825" gradientTransform="matrix(142.4074 -105.2221 -105.2221 -142.4074 134360.9375 -10730.4092)">
				<stop  offset="0.57" style="stop-color:#3E863D"/>
				<stop  offset="0.72" style="stop-color:#619857"/>
				<stop  offset="1" style="stop-color:#76AC64"/>
			</linearGradient>
			<path id="XMLID_53_" fill="url(#XMLID_32_)" d="M97.4,193l24.3,32.9l32.2-23.8l-24.3-32.9L97.4,193z"/>
		</g>
	</g>
	<g id="XMLID_48_">
		<defs>
			<path id="SVGID_16_" d="M47.3,18c-0.2,0-0.4,0.1-0.6,0.2l-12.2,7l13.2,24c0.2,0,0.4-0.1,0.5-0.2l12.2-7.1c0.4-0.2,0.6-0.6,0.7-1
				L47.7,18c-0.1,0-0.2,0-0.3,0C47.3,18,47.3,18,47.3,18"/>
		</defs>
		<clipPath id="SVGID_3_">
			<use xlink:href="#SVGID_16_"  overflow="visible"/>
		</clipPath>
		<g id="XMLID_49_" transform="translate(-78.306 -164.016)" clip-path="url(#SVGID_3_)">
			
				<linearGradient id="XMLID_33_" gradientUnits="userSpaceOnUse" x1="-644.1934" y1="402.6302" x2="-643.9885" y2="402.6302" gradientTransform="matrix(129.8891 0 0 -129.8891 83786.4844 52494.8594)">
				<stop  offset="0.16" style="stop-color:#6BBF47"/>
				<stop  offset="0.38" style="stop-color:#79B461"/>
				<stop  offset="0.47" style="stop-color:#75AC64"/>
				<stop  offset="0.7" style="stop-color:#659E5A"/>
				<stop  offset="0.9" style="stop-color:#3E863D"/>
			</linearGradient>
			<path id="XMLID_50_" fill="url(#XMLID_33_)" d="M112.8,182v31.2h26.6V182L112.8,182z"/>
		</g>
	</g>
</g>
<g id="XMLID_15_">
</g>
<g id="XMLID_16_">
</g>
<g id="XMLID_17_">
</g>
<g id="XMLID_18_">
</g>
<g id="XMLID_19_">
</g>
<g id="XMLID_20_">
</g>
<g id="XMLID_21_">
</g>
<g id="XMLID_22_">
</g>
<g id="XMLID_23_">
</g>
<g id="XMLID_24_">
</g>
<g id="XMLID_25_">
</g>
<g id="XMLID_26_">
</g>
<g id="XMLID_27_">
</g>
<g id="XMLID_28_">
</g>
<g id="XMLID_29_">
</g>
</svg>
