<?xml version="1.0" encoding="utf-8"?>
<!-- Generator: Adobe Illustrator 19.0.0, SVG Export Plug-In . SVG Version: 6.00 Build 0)  -->
<svg version="1.1" id="Layer_1" xmlns="http://www.w3.org/2000/svg" xmlns:xlink="http://www.w3.org/1999/xlink" x="0px" y="0px"
	 viewBox="-267 356 76 81" style="enable-background:new -267 356 76 81;" xml:space="preserve">
<style type="text/css">
	.st0{fill:#0078D7;}
</style>
<g>
	<g>
		<path class="st0" d="M-242,397.2c0.2,0.4,0.5,0.6,0.9,0.6c0.4,0.2,0.7,0.2,1.1,0.2s0.7,0,0.9-0.2c0.4-0.2,0.5-0.4,0.9-0.7l0.5-1.1
			c0.2-0.4,0.2-0.9,0.2-1.7c0-0.6,0-0.9-0.2-1.5s-0.2-0.9-0.5-1.3c-0.2-0.4-0.5-0.5-0.7-0.9c-0.4-0.2-0.7-0.4-1.1-0.4
			c-0.5,0-0.9,0.2-1.3,0.4s-0.5,0.5-0.9,0.7l-0.5,1.1c-0.2,0.4-0.2,0.9-0.2,1.5c0,0.7,0,1.3,0.2,1.7L-242,397.2z M-231.5,411.5
			c0.5,0,1.3,0,1.8,0.2c2.9-5.9,8.7-9.7,15.4-10.1v-34.3c0-5.5-11.8-10.8-26.1-10.8c-14.5,0-26.1,5-26.1,10.5v49.5
			c0,5,9.6,9.7,22.1,10.5c-0.2-0.7-0.2-1.5-0.2-2.2C-244.6,417.6-238.8,411.5-231.5,411.5z M-222.1,401.5h-9.1v-14.1h4.2v10.8h4.9
			V401.5L-222.1,401.5z M-240.4,360.4c10.3,0,18.7,2.6,18.7,5.7c0,3.1-8.3,5.7-18.7,5.7s-18.7-2.6-18.7-5.7
			C-259.1,362.9-250.7,360.4-240.4,360.4z M-248.2,398.2c0,0.4-0.2,0.7-0.4,1.1s-0.4,0.7-0.7,0.9c-0.4,0.4-0.7,0.5-1.1,0.7
			c-0.4,0.2-0.9,0.4-1.6,0.6c-0.5,0.2-1.3,0.2-2.2,0.2h-1.3c-0.4,0-0.7,0-1.1-0.2c-0.4,0-0.7-0.2-0.9-0.2c-0.4,0-0.5-0.2-0.7-0.4
			V397c0.2,0.2,0.5,0.4,0.9,0.6c0.4,0.2,0.5,0.4,0.9,0.5c0.4,0.2,0.7,0.2,1.1,0.4c0.4,0.2,0.7,0.2,1.1,0.2s0.5,0,0.7-0.2
			c0.2,0,0.4-0.2,0.4-0.2c0.2,0,0.2-0.2,0.2-0.4v-0.4c0-0.2,0-0.4-0.2-0.6c-0.2-0.2-0.2-0.4-0.4-0.4c-0.2-0.2-0.4-0.2-0.7-0.4
			c-0.4-0.2-0.5-0.2-0.9-0.4c-0.5-0.2-1.1-0.6-1.6-0.9c-0.4-0.4-0.7-0.6-1.1-0.9c-0.4-0.4-0.5-0.7-0.5-1.1c-0.2-0.4-0.2-0.9-0.2-1.3
			c0-0.7,0.2-1.3,0.4-1.8c0.4-0.6,0.7-1.1,1.1-1.5c0.5-0.4,1.1-0.7,1.8-0.9c0.7-0.2,1.4-0.4,2.4-0.4h1.3c0.4,0,0.7,0,1.1,0.2
			c0.4,0,0.5,0.2,0.9,0.2c0.2,0,0.5,0.2,0.7,0.2v3.7c-0.2-0.2-0.4-0.2-0.7-0.4c-0.2-0.2-0.5-0.2-0.9-0.4c-0.4-0.2-0.5-0.2-0.9-0.2
			h-1.1c-0.5,0-0.9,0-1.1,0.2c-0.4,0.2-0.4,0.4-0.4,0.7c0,0.2,0,0.4,0.2,0.4c0,0.2,0.2,0.2,0.4,0.4s0.4,0.2,0.5,0.4
			c0.2,0.2,0.5,0.2,0.9,0.4c0.5,0.2,1.1,0.6,1.6,0.7c0.5,0.4,0.9,0.6,1.3,0.9c0.4,0.4,0.5,0.7,0.9,1.1c0.2,0.4,0.4,0.9,0.4,1.7
			C-248.2,397.4-248.2,397.8-248.2,398.2L-248.2,398.2z M-246.8,397.4c-0.4-0.9-0.6-1.9-0.5-2.9c0-1.1,0.2-2.2,0.5-3.1
			s0.9-1.7,1.4-2.4c0.5-0.7,1.4-1.1,2.2-1.5c0.9-0.4,1.8-0.6,2.9-0.6c1.1,0,2,0.2,2.7,0.6c0.8,0.3,1.6,0.8,2.2,1.5
			c0.5,0.6,1.1,1.5,1.4,2.2c0.4,0.9,0.5,1.8,0.5,3.1c0,0.7,0,1.7-0.4,2.2c-0.2,0.7-0.5,1.3-0.9,1.8c-0.4,0.6-0.7,1.1-1.3,1.5
			c-0.5,0.4-0.9,0.7-1.6,1.1l4.7,4h-5.4l-3.1-3.3c-0.9,0-1.8-0.4-2.5-0.5c-0.7-0.4-1.4-0.9-2-1.5
			C-245.8,399.1-246.4,398.3-246.8,397.4L-246.8,397.4z"/>
		<path class="st0" d="M-191.5,429.7c0-3.5-2.7-6.4-6.2-6.8c0.2-1.1,0.4-2,0.4-3.1c0-9-7.2-16.3-16.1-16.3c-6.7,0-12.7,4-15,10.3
			c-0.9-0.2-1.8-0.4-2.9-0.4c-6.3,0-11.4,5.1-11.4,11.6c0,6.3,5,11.4,11.2,11.6h34.1h1.3v-0.2C-193.5,435.6-191.5,432.8-191.5,429.7
			z M-197.7,434.7h-33.7c-5.3,0-9.6-4.4-9.6-9.7s4.3-9.7,9.6-9.7c1.1,0,2.2,0.2,3.1,0.6l0.9,0.4l0.4-0.9c2-5.9,7.4-9.9,13.6-9.9
			c8,0,14.3,6.6,14.3,14.5c0,1.3-0.2,2.6-0.5,3.9l-0.4,1.5l1.3-0.2h0.5c2.7,0,4.9,2.2,4.9,5C-193.3,432.3-195.1,434.5-197.7,434.7
			L-197.7,434.7z"/>
	</g>
</g>
</svg>
